<?xml version="1.0" standalone="no"?><!DOCTYPE svg PUBLIC "-//W3C//DTD SVG 1.1//EN" "http://www.w3.org/Graphics/SVG/1.1/DTD/svg11.dtd"><svg t="1769351532805" class="icon" viewBox="0 0 1024 1024" version="1.1" xmlns="http://www.w3.org/2000/svg" p-id="7447" data-spm-anchor-id="a313x.search_index.0.i2.55203a813LIIqF" xmlns:xlink="http://www.w3.org/1999/xlink" width="200" height="200"><path d="M951.13385 323.586628c3.326772-35.570865 5.11811-60.649605 5.11811-73.700786 0-85.98425-25.590551-149.704722-73.700786-189.370075S752.295271 0.377972 641.232281 0.377972h-157.125981a466.771645 466.771645 0 0 0-206.77165 39.153543 270.236215 270.236215 0 0 0-119.763777 120.019683 646.673216 646.673216 0 0 0-59.114172 218.287397L64.933079 645.515755A939.17321 939.17321 0 0 0 58.535442 742.503942c0 96.220471 25.590551 168.129918 74.468502 213.169288S263.003942 1024 372.275593 1024H757.669287l13.562991-105.433069H382.511814c-73.956691 0-127.952753-13.562992-159.173226-40.177164S175.484258 805.712603 175.484258 742.503942a752.36219 752.36219 0 0 1 6.397638-87.007872l36.082677-285.590546A551.476367 551.476367 0 0 1 256.094493 214.826787a173.503934 173.503934 0 0 1 76.771652-83.425195 292.499994 292.499994 0 0 1 133.582675-25.590551h173.759839c70.374014 0 121.29921 11.259842 150.984249 33.523622s45.807086 62.952755 45.807086 119.763777c0 11.259842-1.791339 33.01181-5.374016 66.279526l-25.590551 209.58661c-5.11811 41.200787-10.23622 72.165353-14.842519 92.125983a98.267715 98.267715 0 0 1-19.704724 44.015747 46.830708 46.830708 0 0 1-36.338582 13.562992 35.570865 35.570865 0 0 1-31.732283-15.610236 85.472439 85.472439 0 0 1-9.468504-46.062991 757.224395 757.224395 0 0 1 6.653544-78.05118l33.779526-279.448813h-212.913381a292.244089 292.244089 0 0 0-121.299211 21.240157 153.543304 153.543304 0 0 0-70.374014 67.303148 381.811016 381.811016 0 0 0-37.106298 129.744092L281.685044 563.370088a297.618105 297.618105 0 0 0-3.582677 46.830707 153.543304 153.543304 0 0 0 42.224408 118.48425 173.248028 173.248028 0 0 0 122.834644 39.409448 255.905507 255.905507 0 0 0 147.913383-49.133857l6.397637-4.606299 3.326772 7.421259a86.496061 86.496061 0 0 0 41.456692 44.271653 174.783461 174.783461 0 0 0 79.842518 14.842519 176.318894 176.318894 0 0 0 137.421257-54.507873c32.755905-36.594487 55.275589-103.64173 67.047243-199.606295z m-354.940938 222.637791c-3.582677 25.590551-6.141732 51.181101-7.677165 73.188975v2.303149l-1.791339 1.791339a175.807083 175.807083 0 0 1-59.370078 38.12992 186.299209 186.299209 0 0 1-68.582675 13.818898C409.637797 675.4567 384.047247 647.818905 384.047247 595.614181c0-6.397638 0-16.633858 2.559055-30.196849l10.492125-83.681101a176.830705 176.830705 0 0 1 32.244094-95.452754 98.011809 98.011809 0 0 1 76.771652-28.661417h111.574801z" p-id="7448"></path></svg>