<?xml version="1.0" standalone="no"?><!DOCTYPE svg PUBLIC "-//W3C//DTD SVG 1.1//EN" "http://www.w3.org/Graphics/SVG/1.1/DTD/svg11.dtd"><svg t="1769456518949" class="icon" viewBox="0 0 1024 1024" version="1.1" xmlns="http://www.w3.org/2000/svg" p-id="17484" xmlns:xlink="http://www.w3.org/1999/xlink" width="200" height="200"><path d="M958.976 439.808c-154.112-102.912-316.416-118.272-316.416-118.272s8.192 235.008-10.752 306.176c-0.512 9.728-11.776 75.264-43.008 157.696a542.037333 542.037333 0 0 1-39.424 81.408 739.214222 739.214222 0 0 1-89.6 127.488c119.808-48.64 205.312-92.672 309.76-175.616 122.88-96.711111 229.376-254.464 189.44-378.88z" p-id="17485"></path><path d="M329.898667 395.776c158.151111-100.864 308.679111-78.848 312.32-74.752a1.592889 1.592889 0 0 0 1.024 0.512c0-14.336-6.656-60.928-13.368889-106.496-11.719111-60.928-22.471111-124.928-22.983111-133.632-170.496-139.264-356.864-78.336-448 25.6C97.450667 177.152 55.466667 276.992 56.490667 331.264v431.616c0.512-12.8 1.536-20.48 2.048-20.48 17.92-197.12 271.36-346.624 271.36-346.624z" p-id="17486"></path><path d="M792.007111 272.440889c-41.984-43.52-87.552-88.576-122.311111-125.44-33.336889-34.816-59.448889-60.928-63.032889-65.536 0.568889 8.704 11.264 72.704 23.04 133.632 6.656 45.511111 12.8 92.672 13.312 106.496 0 0 162.304 15.36 316.416 118.272-0.512 0-83.456-80.384-167.424-167.424zM549.831111 866.816c-2.56 1.024-198.656 107.008-292.352-30.72-20.992-30.72-31.744-68.096-33.28-106.496-3.072-74.752 5.12-227.84 105.472-333.824 0 0-253.44 149.504-270.848 346.624-0.512 0.512-2.048 8.192-2.048 20.48-1.024 32.768 4.608 98.304 43.008 155.136 52.224 78.336 193.024 138.752 328.192 85.504l33.28-9.728c-1.024 0.512 47.616-52.224 88.576-126.976z" p-id="17487"></path></svg>