<?xml version="1.0" standalone="no"?><!DOCTYPE svg PUBLIC "-//W3C//DTD SVG 1.1//EN" "http://www.w3.org/Graphics/SVG/1.1/DTD/svg11.dtd"><svg t="1774433175157" class="icon" viewBox="0 0 1024 1024" version="1.1" xmlns="http://www.w3.org/2000/svg" p-id="3459" xmlns:xlink="http://www.w3.org/1999/xlink" width="200" height="200"><path d="M811.229059 619.7347c19.410072-74.478272-0.853437-143.32222-34.739199-201.047945-38.098713-71.748091-135.620817-158.514223-158.368914-178.23845 27.342742-39.615253 29.950126-96.465029 29.950126-96.465029s-0.212848-0.11461-0.60989-0.271176c-7.433296-3.692089-15.889899-5.683443-25.037233-6.271844-33.013905-4.428869-95.090728-0.200568-169.654958 65.765843-327.412958 12.31549-285.957801 175.171602-285.957801 175.171602-67.547419 30.54876-56.039317 57.755402-37.750789 73.978898 6.570649 5.16258 15.785521 8.820899 24.094768 11.341303 13.270235 3.245927 27.182083 4.136204 34.659381 4.335748l157.530826 0.730641c15.785521 28.14399 44.934398 47.110971 70.299089 59.118446 1.673106 0.536212 3.341095 1.047866 5.393847 1.806135 22.861684 8.271384 32.980135 10.089799 38.117133 6.576789 1.331321-4.499477 2.095731-9.467629 2.484587-14.371312l-3.987824-55.57576c211.304544 17.282618 290.553469 176.12123 290.553469 176.12123l-43.640939 92.069929c124.149555-92.393293 151.243633 128.313388 151.243633 128.313388C891.661949 683.962513 811.229059 619.7347 811.229059 619.7347z" p-id="3460"></path></svg>