<?xml version="1.0" standalone="no"?><!DOCTYPE svg PUBLIC "-//W3C//DTD SVG 1.1//EN" "http://www.w3.org/Graphics/SVG/1.1/DTD/svg11.dtd"><svg t="1769452815162" class="icon" viewBox="0 0 1024 1024" version="1.1" xmlns="http://www.w3.org/2000/svg" p-id="4925" xmlns:xlink="http://www.w3.org/1999/xlink" width="200" height="200"><path d="M472.832 205.397333c-33.962667 4.650667-83.413333 23.594667-106.88 40.96a55.594667 55.594667 0 0 1-8.277333 5.248 202.026667 202.026667 0 0 0-17.792 13.610667c-31.146667 26.197333-57.386667 61.013333-72.277334 95.701333-7.850667 18.602667-10.453333 26.197333-17.92 53.973334-2.389333 9.472-5.845333 13.781333-11.050666 13.781333-8.96 0-55.338667 19.797333-69.632 29.653333-10.709333 7.594667-36.608 30.72-41.258667 37.034667-24.234667 33.152-28.757333 41.386667-36.48 65.706667a191.530667 191.530667 0 0 0-9.472 61.397333c0 55.04 18.944 101.077333 57.770667 139.776 23.936 24.021333 52.053333 41.301333 81.066666 49.322667 34.090667 9.514667 24.064 9.386667 290.56 9.386666 223.872 0 246.997333-0.341333 262.016-2.901333 18.346667-3.370667 45.568-10.581333 48.810667-13.013333 1.194667-0.896 4.821333-2.730667 8.106667-3.968 7.978667-3.072 26.197333-14.976 39.850666-25.856 44.288-35.498667 72.106667-94.293333 72.234667-152.96 0-16.981333-6.698667-55.722667-11.221333-64.341334a25.002667 25.002667 0 0 1-2.645334-7.253333c0-3.072-13.226667-28.928-16.896-33.194667a141.909333 141.909333 0 0 1-7.936-10.88c-6.698667-10.709333-15.36-19.797333-32.085333-33.792-16.682667-14.336-27.605333-21.76-36.181333-25.173333a38.613333 38.613333 0 0 1-7.936-3.84c-2.474667-1.706667-33.450667-13.098667-42.069334-15.274667a286.464 286.464 0 0 0-31.957333-2.773333c-29.013333-1.024-50.005333 1.024-64.64 6.528-5.12 1.92-13.141333 4.693333-17.578667 6.272-10.496 3.413333-31.872 15.146667-42.112 22.954667-21.76 16.682667-66.56 56.874667-91.221333 81.92a21793.28 21793.28 0 0 1-161.877333 155.989333c-9.472 9.002667-23.637333 22.912-31.573334 30.890667l-14.293333 14.293333-28.672-1.28a491.946667 491.946667 0 0 1-43.946667-3.413333c-44.842667-7.424-81.749333-41.216-93.994666-86.186667-3.626667-13.141333-3.968-46.336-0.682667-59.477333 5.674667-22.442667 22.058667-48.256 40.192-63.488 19.114667-16 52.565333-27.904 78.378667-27.904 31.061333 0 65.536 16.042667 96.085333 44.501333 5.845333 5.290667 14.464 12.885333 18.944 16.725333 4.650667 3.712 13.226667 11.349333 18.986667 16.682667 5.802667 5.546667 11.52 10.026667 12.928 10.026667 3.072 0 9.813333-5.674667 34.304-29.653334 11.52-11.434667 21.034667-21.76 21.034666-22.954666 0-1.194667-7.552-8.618667-16.725333-16.384a497.962667 497.962667 0 0 1-19.669333-17.237334c-3.285333-3.797333-34.133333-28.8-50.005334-40.704a214.016 214.016 0 0 0-53.845333-28.288c-8.362667-3.285333-15.658667-6.528-15.957333-7.765333-0.896-2.218667 9.984-33.450667 15.146666-43.093333 10.666667-20.48 24.32-37.930667 43.946667-56.576 18.005333-16.896 47.146667-33.109333 70.4-38.912 3.797333-0.896 11.861333-3.114667 18.090667-4.693334 8.234667-2.218667 17.706667-3.072 36.266666-3.072 21.504 0 27.349333 0.682667 43.093334 4.693334 34.261333 8.96 57.429333 20.48 80.810666 40.832 15.018667 13.141333 30.549333 31.402667 40.362667 48.085333 4.522667 7.637333 8.832 14.165333 9.472 14.677333 4.224-0.128 8.405333-0.768 12.458667-1.877333 6.186667-1.365333 23.253333-3.114667 37.973333-3.626667 29.952-1.365333 30.848-1.706667 24.405333-13.824-1.706667-3.413333-4.266667-9.472-5.504-13.226666a65.621333 65.621333 0 0 0-6.058666-12.928 71.765333 71.765333 0 0 1-4.778667-8.618667c-3.797333-7.936-19.456-28.928-34.133333-45.824-17.792-20.352-49.493333-44.117333-75.733334-56.917333a4067.669333 4067.669333 0 0 0-19.498666-9.642667c-3.072-1.578667-8.618667-3.498667-31.317334-10.538667-28.885333-9.173333-73.898667-12.16-109.909333-7.296z m294.144 300.16c31.744 8.106667 49.322667 18.432 67.925333 40.192 19.370667 22.186667 26.538667 42.24 27.434667 74.837334 0.725333 20.181333 0.341333 23.253333-3.797333 35.968-5.888 18.176-11.562667 29.568-20.352 40.277333-16.725333 20.48-41.045333 36.352-64 41.728a343.381333 343.381333 0 0 1-35.456 3.968c-31.914667 2.048-290.858667 2.176-292.096 0.213333-0.512-0.938667 17.792-19.754667 40.704-41.813333 22.912-22.229333 46.72-45.354667 52.906666-51.498667 18.645333-18.346667 90.026667-86.570667 100.181334-95.744 3.797333-3.413333 7.424-6.954667 10.88-10.709333 2.218667-3.413333 25.856-20.522667 36.053333-25.898667a150.613333 150.613333 0 0 1 22.101333-8.96c7.04-2.048 13.781333-4.138667 14.634667-4.437333 4.949333-1.706667 33.621333-0.512 42.88 1.877333z" p-id="4926"></path></svg>