<?xml version="1.0" encoding="UTF-8"?>
<!--Generator: Apple Native CoreSVG 341-->
<!DOCTYPE svg
PUBLIC "-//W3C//DTD SVG 1.1//EN"
       "http://www.w3.org/Graphics/SVG/1.1/DTD/svg11.dtd">
<svg version="1.1" xmlns="http://www.w3.org/2000/svg" xmlns:xlink="http://www.w3.org/1999/xlink" viewBox="0 0 19.4824 19.1309">
 <g>
  <rect height="19.1309" opacity="0" width="19.4824" x="0" y="0"/>
  <path d="M0 5.42969C0 5.85938 0.351562 6.21094 0.78125 6.21094C1.2207 6.21094 1.57227 5.85938 1.57227 5.42969L1.57227 3.58398C1.57227 2.34375 2.31445 1.5918 3.56445 1.5918L5.44922 1.5918C5.87891 1.5918 6.24023 1.23047 6.24023 0.800781C6.24023 0.371094 5.87891 0.0195312 5.44922 0.0195312L3.56445 0.0195312C1.34766 0.0195312 0 1.37695 0 3.58398ZM19.1211 5.42969L19.1211 3.58398C19.1211 1.37695 17.7734 0.0195312 15.5566 0.0195312L13.6621 0.0195312C13.2324 0.0195312 12.8809 0.371094 12.8809 0.800781C12.8809 1.23047 13.2324 1.5918 13.6621 1.5918L15.5566 1.5918C16.8066 1.5918 17.5488 2.34375 17.5488 3.58398L17.5488 5.42969C17.5488 5.85938 17.9004 6.21094 18.3301 6.21094C18.7598 6.21094 19.1211 5.85938 19.1211 5.42969ZM0 13.7207L0 15.5664C0 17.7734 1.34766 19.1309 3.56445 19.1309L5.44922 19.1309C5.87891 19.1309 6.24023 18.7793 6.24023 18.3496C6.24023 17.9199 5.87891 17.5586 5.44922 17.5586L3.56445 17.5586C2.31445 17.5586 1.57227 16.8066 1.57227 15.5664L1.57227 13.7207C1.57227 13.291 1.2207 12.9297 0.78125 12.9297C0.351562 12.9297 0 13.291 0 13.7207ZM19.1211 13.7207C19.1211 13.291 18.7598 12.9297 18.3301 12.9297C17.9004 12.9297 17.5488 13.291 17.5488 13.7207L17.5488 15.5664C17.5488 16.8066 16.8066 17.5586 15.5566 17.5586L13.6621 17.5586C13.2324 17.5586 12.8809 17.9199 12.8809 18.3496C12.8809 18.7793 13.2324 19.1309 13.6621 19.1309L15.5566 19.1309C17.7734 19.1309 19.1211 17.7734 19.1211 15.5664Z" fill-opacity="0.85"/>
  <path d="M5.83984 8.91602C6.2793 8.91602 6.5918 8.59375 6.5918 8.1543L6.5918 6.75781C6.5918 6.31836 6.2793 5.99609 5.83984 5.99609C5.41016 5.99609 5.08789 6.31836 5.08789 6.75781L5.08789 8.1543C5.08789 8.59375 5.41016 8.91602 5.83984 8.91602ZM8.76953 11.2109C8.79883 11.2109 8.82812 11.2109 8.85742 11.2109C9.84375 11.2109 10.3809 10.6738 10.3809 9.69727L10.3809 6.62109C10.3809 6.25 10.1172 5.98633 9.74609 5.98633C9.36523 5.98633 9.11133 6.25 9.11133 6.62109L9.11133 9.78516C9.11133 9.87305 9.05273 9.93164 8.95508 9.93164L8.62305 9.93164C8.27148 9.93164 7.99805 10.1953 7.99805 10.5469C7.99805 10.9668 8.28125 11.2109 8.76953 11.2109ZM13.2422 8.91602C13.6719 8.91602 13.9941 8.59375 13.9941 8.1543L13.9941 6.75781C13.9941 6.31836 13.6719 5.99609 13.2422 5.99609C12.8027 5.99609 12.4902 6.31836 12.4902 6.75781L12.4902 8.1543C12.4902 8.59375 12.8027 8.91602 13.2422 8.91602ZM9.50195 14.502C10.6738 14.502 11.8652 13.9941 12.7246 13.1445C12.832 13.0273 12.9004 12.8711 12.9004 12.666C12.9004 12.3047 12.6172 12.041 12.2559 12.041C12.0801 12.041 11.9434 12.0996 11.748 12.3047C11.2207 12.8516 10.3711 13.2422 9.50195 13.2422C8.67188 13.2422 7.82227 12.8711 7.25586 12.3047C7.09961 12.1484 6.96289 12.041 6.72852 12.041C6.37695 12.041 6.09375 12.3047 6.09375 12.666C6.09375 12.8418 6.16211 12.9883 6.2793 13.1348C7.08008 14.0332 8.32031 14.502 9.50195 14.502Z" fill-opacity="0.85"/>
 </g>
</svg>
