<?xml version="1.0" standalone="no"?><!DOCTYPE svg PUBLIC "-//W3C//DTD SVG 1.1//EN" "http://www.w3.org/Graphics/SVG/1.1/DTD/svg11.dtd"><svg t="1769455879417" class="icon" viewBox="0 0 1024 1024" version="1.1" xmlns="http://www.w3.org/2000/svg" p-id="12402" xmlns:xlink="http://www.w3.org/1999/xlink" width="200" height="200"><path d="M465.6 56.96c-98.4 10.72-184.48 48.8-258.4 114.4-76.8 68.16-127.84 160.48-145.6 263.04-5.44 31.68-6.4 44.96-6.24 83.2 0.32 48.8 7.36 91.2 23.04 138.4 50.24 151.04 176 265.44 330.56 300.8 58.88 13.44 110.56 15.52 170.24 7.04 132.32-18.88 253.28-99.52 323.2-215.04 30.72-50.88 52.8-111.84 61.6-170.88 15.68-104.48-6.56-212.8-62.56-304.8-54.88-90.08-142.24-159.84-243.04-194.24-60.96-20.64-130.88-28.64-192.8-21.92z m100.16 7.84c105.28 12.32 203.36 62.56 277.28 142.4C895.52 264 934.4 337.92 951.04 412.8c8.48 38.24 9.76 52.16 9.76 99.2-0.16 47.2-1.6 62.24-9.76 98.72-14.4 64.8-45.6 129.76-88 182.88-13.92 17.6-52 55.52-69.44 69.44-63.04 50.24-136.16 81.92-219.2 94.88-14.72 2.24-27.68 2.88-64 2.88-48.96-0.16-64.16-1.76-104-11.36C232 907.84 97.76 764.16 68 587.2c-10.56-62.4-8-125.12 7.2-185.44 44-174.4 186.08-304.64 364.8-334.4 40.16-6.72 82.24-7.52 125.76-2.56z" p-id="12403"></path><path d="M454.4 100c-4 2.08-8.48 3.84-9.92 4-4 0-3.68 3.2 0.16 3.2 6.24 0 4.64 3.04-8 15.36-15.68 15.36-18.4 19.84-15.84 26.4 3.36 8 11.04 7.68 11.2-0.64 0-8.16 18.08-31.52 24.16-31.52 9.92 0 12.64 8.64 4.64 14.4-3.68 2.56-5.44 3.04-7.84 1.76-3.84-2.24-9.12 1.92-10.72 8.16-1.12 5.28 0.96 5.76 4.96 1.28 4.48-4.96 5.28-4 4.96 5.6l-0.16 8.96-6.88 1.76c-12.8 3.2-8.8 7.84 4.16 4.8 4.16-0.96 7.68-1.44 8-1.12 1.44 1.44-7.04 7.04-12.16 8l-5.92 1.28 4.8 2.08c11.36 4.96 20 1.12 20-9.12 0-6.08 0.16-6.24 5.6-6.24 6.08 0 9.44-4 5.44-6.56-3.2-1.92-11.68-1.76-13.76 0.32-2.88 2.88-3.68-0.96-1.6-8 1.44-4.96 3.2-7.2 7.52-9.44 3.36-1.6 5.76-4.16 6.08-6.24 0.8-5.76-4-12.8-10.08-15.04-3.04-1.12-5.6-2.56-5.6-3.04 0-0.64 3.04-2.72 6.88-4.8 8.64-4.8 8.32-4.32 5.92-7.2-2.72-3.36-7.68-2.88-16 1.6zM421.92 98.72c-1.76 1.6-1.28 8.32 0.64 12.16 3.52 6.56 9.44 8.16 9.44 2.72 0-6.4-7.68-17.44-10.08-14.88zM574.08 101.92c-1.28 1.6-3.52 4.8-4.96 7.2-2.4 3.84-3.84 4.48-10.08 4.48-8.48 0-8.96 3.04-1.12 5.6l4.8 1.6-2.4 7.84c-2.08 6.4-3.52 8.16-8 10.08-3.04 1.28-7.84 2.08-10.72 1.92-5.76-0.64-13.6 5.12-13.6 9.92 0 3.04 6.4 6.24 12.8 6.24 4.16 0 5.28 1.12 9.12 8.96 2.56 4.96 5.28 8.96 6.08 8.96 0.96-0.16 2.08-2.56 2.56-5.44 0.64-2.88 1.12-4.32 1.28-3.2 0.32 3.68 11.2 7.04 18.88 5.92 6.24-0.96 7.36-0.64 10.24 3.04 3.84 4.96 8.8 6.72 11.84 4.16 3.84-3.2 2.72-8.32-3.2-14.4-5.12-5.28-5.6-6.4-4-10.24 3.04-8.16 2.08-13.6-3.2-16.64-2.56-1.44-4.8-3.04-4.8-3.52 0-0.48 5.12-3.36 11.52-6.4 6.24-3.04 11.68-6.56 12.16-7.52 0.32-1.12-2.24-3.2-5.92-4.64-5.76-2.24-6.56-3.2-6.56-7.84 0-2.88-1.12-6.08-2.4-7.2-2.88-2.4-7.52-0.96-6.4 1.92 0.32 1.12-0.96 6.72-3.04 12.48-2.88 8.48-4.32 10.56-7.36 10.88-2.24 0.32-4.8 1.76-5.76 3.2-1.12 1.6-2.4 2.24-3.04 1.6-1.12-0.96 3.84-10.72 11.2-21.92 2.4-3.52 3.84-7.2 3.2-8-1.6-2.72-6.4-2.08-9.12 0.96z m24.96 15.36c1.92 3.04-0.8 5.92-5.76 5.92-2.4 0-2.4-0.64-0.96-4.8 1.76-5.28 4-5.6 6.72-1.12z m-20.48 20.64c-1.12 6.56 1.12 11.04 4.16 8 5.12-5.12 8.32 0.64 3.84 6.88-2.08 3.04-2.4 3.04-8.8 0-8.8-3.84-9.92-2.08-3.2 4.96 4.48 4.64 4.96 5.76 3.04 7.04-4.48 2.88-12 1.76-15.84-2.24-2.88-3.04-3.36-4.8-2.56-9.6 1.44-6.88 12.48-20.16 17.12-20.16 2.72 0 3.04 0.8 2.24 5.12zM326.4 132.8c0 1.76 1.12 6.08 2.56 9.6 2.72 6.72 2.08 10.08-1.28 6.72-1.28-1.28-2.4-1.44-4-0.16-2.88 2.4-2.72 7.2 0.32 8.48 1.28 0.48 2.4 2.08 2.4 3.52 0 2.56-1.76 2.56-8 0-4.32-1.76-6.88 1.76-7.36 9.44-0.32 6.08-1.44 8.64-5.6 12.96-2.88 3.04-5.44 5.12-5.76 4.96-0.32-0.32 1.28-5.92 3.52-12.48 6.24-17.92 7.2-23.2 4.8-26.56-3.52-4.8-6.88-0.16-6.88 9.6 0 4.64-1.92 14.4-4 21.92-5.12 16.96-3.68 20.64 4.96 12.48l5.6-5.28-1.12 5.6c-2.88 14.88-3.04 23.2-0.48 25.44 3.84 3.2 8.8 0.64 12.48-6.4l3.2-6.4 4.16 3.36c3.68 2.88 8.48 4.32 8.48 2.56 0-0.32-2.56-4.48-5.76-9.12-5.28-7.84-5.6-8.96-4.64-17.28 1.6-14.72 2.56-17.76 5.12-17.76 2.08 0 2.24 1.44 1.44 9.12-2.24 18.08-2.08 20.48 1.44 20.96 1.92 0.32 6.08-1.92 10.08-5.44 3.84-3.2 7.04-5.6 7.36-5.28 0.16 0.32 2.72 4.48 5.6 9.12 4.8 7.68 10.4 13.12 13.12 13.12 0.96 0-5.44-27.68-8.8-37.92-0.96-2.88 0.16-4.8 4.64-9.28 5.6-5.76 6.08-8.8 1.44-8.8-5.76 0-19.84-8.32-23.04-13.76-3.2-5.12-10.4-10.24-14.4-10.24-0.8 0-1.6 1.44-1.6 3.2z m-8 36.8c0 0.8-0.64 1.6-1.6 1.6-0.8 0-1.6-0.8-1.6-1.6 0-0.96 0.8-1.6 1.6-1.6 0.96 0 1.6 0.64 1.6 1.6z m4 8.32c-1.6 7.36-4 9.44-4 3.52 0-4.16 2.4-8.64 4.48-8.64 0.32 0 0.16 2.4-0.48 5.12z m20-2.08c0 0.96-0.64 2.08-1.6 2.56-0.8 0.48-1.6-0.16-1.6-1.44 0-1.44 0.8-2.56 1.6-2.56 0.96 0 1.6 0.64 1.6 1.44zM317.28 198.4c-0.48 1.76-1.44 3.68-2.24 4.16-1.6 0.96-1.92-6.24-0.48-7.84 1.92-1.92 3.52 0.48 2.72 3.68zM709.76 148.32c-1.92 4.96-14.56 21.12-16.64 21.28-1.12 0-4.32-1.12-7.04-2.56-3.36-1.76-5.28-2.08-6.56-0.8-2.56 2.56 1.28 9.76 5.28 9.76 3.52 0 4.32 2.4 1.28 4.16-0.96 0.64-2.24 0.32-2.56-0.64-0.8-2.56-5.76-2.4-17.12 0.48s-19.2 9.92-17.44 15.68c2.24 7.52 3.68 7.84 12.8 2.72 7.84-4.32 15.04-6.24 15.04-3.84 0 0.48-1.44 2.72-3.2 4.96-3.36 4.32-4.16 10.88-1.6 14.88 1.76 2.88 1.76 2.72 7.04-7.52 6.4-12.64 10.56-13.92 7.36-2.08-1.6 5.76-1.44 7.2 0.96 9.76 3.04 3.36 11.68 4.16 12 0.96 0.16-0.96 0.16-3.68 0-5.92 0-2.24 0.64-5.92 1.6-8.32 2.56-6.24-1.44-12.48-7.2-11.36-5.44 1.12-5.28-1.28 0.64-7.52 4.48-4.8 5.12-4.96 16.32-4.64 12.32 0.32 16-1.76 8.64-5.12-2.24-1.12-4.16-2.56-4.16-3.36 0-0.64-0.64-1.28-1.6-1.28-0.8 0-1.6 1.12-1.6 2.4 0 1.6-1.6 2.4-4.96 2.4h-4.96l3.52-5.28c5.28-7.84 9.92-18.56 8.8-20.32-1.44-2.4-3.52-1.92-4.64 1.12zM681.6 185.6c0 2.4-1.12 3.2-4 3.2-4.64 0-5.28-2.4-1.12-4.64 4-2.4 5.12-2.08 5.12 1.44zM724.32 153.12c-2.4 2.4-1.12 13.28 2.08 16.48 2.72 2.72 3.84 2.88 7.2 1.28 2.24-0.96 4-2.4 4-3.2 0-2.4-3.36-8.16-6.88-12.16-3.52-3.68-4.64-4.16-6.4-2.4zM487.84 201.6c-57.44 5.12-97.44 29.44-132.64 80.96-5.28 7.68-6.08 8.32-19.52 12.32-48.64 14.88-88.8 46.88-108.96 86.72-14.56 28.96-19.36 51.04-19.36 87.2 0 21.28 0.8 29.6 3.68 43.2 6.4 30.08 19.84 59.84 34.08 75.36l6.24 6.88 0.48 24.96c0.48 20.64 1.12 27.36 4.64 40.48 18.4 69.44 77.44 123.84 147.84 136.32 16.16 2.88 52 3.36 66.72 0.8 5.44-0.96 16.8-3.68 25.44-5.92l15.68-4 14.72 4.16c22.4 6.24 31.68 7.36 56.96 7.36 16.48 0 27.52-0.96 37.76-3.04 88-18.24 151.04-95.36 149.44-182.72l-0.32-18.72 5.12-5.28c31.36-32.48 47.04-102.08 36-160-12-63.52-56.48-111.68-122.56-132.64-9.12-2.88-16.96-6.08-17.6-7.04-4.16-6.88-22.72-30.56-30.56-38.72-23.04-24.64-53.92-40.8-88.32-46.24-19.52-3.04-46.4-4-64.96-2.4z m76.96 66.08c53.12 12.48 98.56 39.36 133.12 78.4 31.68 36 50.24 74.08 60 123.52 4.32 21.92 3.84 69.44-0.96 91.84-20.32 95.36-91.52 170.56-183.36 193.76-25.28 6.4-47.04 8.64-74.4 7.52-85.28-3.52-163.04-51.52-206.24-127.36-22.88-40-33.6-85.12-31.68-132.96 1.92-48.32 15.04-88.64 42.4-129.6 14.24-21.44 41.6-49.76 62.08-64.32 31.04-22.08 68.48-37.28 107.36-43.68 22.56-3.68 70.24-2.24 91.68 2.88z" p-id="12404"></path><path d="M499.2 269.76c-29.76 2.56-55.04 8.16-77.92 17.6-19.36 8-26.24 11.68-42.88 22.72-53.44 35.36-89.28 87.84-103.36 151.2-4.8 21.44-5.92 67.2-2.4 89.12 13.12 78.24 60.64 142.72 131.36 177.92 18.72 9.44 33.6 14.72 56.48 20.16 17.12 4 21.44 4.32 51.52 4.32 30.08 0 34.4-0.32 51.36-4.32 48.48-11.36 84.48-31.36 119.2-65.92 28.32-28.48 47.36-58.88 59.04-94.4 9.6-29.76 11.2-40 11.2-76.16 0-28.48-0.48-35.04-3.68-49.44C731.2 382.4 677.6 317.92 604.16 288c-31.52-12.8-75.84-20.48-104.96-18.24z m33.6 3.84c104.8 9.28 189.76 84.64 213.12 188.96 3.2 14.4 3.68 20.96 3.68 49.44 0 28.48-0.48 35.04-3.68 49.44-16.64 74.08-63.84 133.92-130.72 165.76-33.12 15.84-56 21.44-92.96 22.72-39.04 1.44-67.04-3.2-100.16-16.48-59.2-23.68-108.8-73.6-132.48-133.28-54.4-137.6 27.36-290.4 172.8-322.4 23.2-5.12 44.48-6.4 70.4-4.16z" p-id="12405"></path><path d="M473.76 295.04c0.32 0.32 6.24 4.32 12.96 8.96 6.88 4.48 18.4 13.76 25.6 20.48 7.2 6.72 12.48 10.88 11.84 9.12-0.64-1.6-1.6-6.08-2.08-9.76-0.8-5.92-0.32-7.04 2.88-9.12 4.64-3.04 20-5.92 30.88-5.92 4.32 0 7.52-0.32 7.2-0.64-1.44-1.6-43.36-9.12-63.04-11.36-21.28-2.4-27.36-2.88-26.24-1.76zM556.8 333.92c8.16 5.44 23.36 22.56 28.32 31.84 3.04 5.6 6.24 15.36 7.84 23.68 4.8 24.16-0.16 57.6-12.32 83.84-22.24 48-69.12 89.28-140.96 124.32-6.88 3.36-12.48 6.24-12.48 6.56 0 1.44 20.64-7.04 36.32-14.72 33.44-16.64 72.8-44.96 93.44-67.36 29.44-32.16 45.44-79.04 42.4-123.68-0.64-9.92-0.48-14.56 0.48-13.6 3.52 3.68 11.36 31.68 13.12 46.56 3.84 36.16-8.64 76.96-35.36 114.24-10.4 14.88-34.24 42.56-38.24 44.8-1.6 0.8-3.36 2.72-4 4.16-1.44 3.84 9.12-5.12 24.16-20.48 26.4-27.04 46.4-60.16 54.4-90.4 3.52-13.28 4.16-19.04 4.16-38.08-0.16-26.24-3.2-40.48-13.12-60.8-3.52-7.04-6.08-12.96-5.76-13.28 1.44-1.44 17.92 24.64 25.6 40.48C640.96 444.8 644.8 470.08 638.4 500.8c-4.32 21.6-15.36 54.72-23.84 71.84-3.52 7.36-6.56 13.76-6.56 14.4 0.16 2.4 12.16-17.92 18.4-31.04 15.36-32.32 20.64-53.44 20.64-83.2 0-16.8-0.64-23.2-3.68-33.6-7.04-25.12-22.4-52.64-39.68-71.36-4.96-5.12-8.16-9.44-7.2-9.44 2.72 0 24.96 18.56 36.48 30.56 20 20.96 33.6 44 40.32 68.64 11.04 39.52 7.68 79.2-11.68 140.16-2.72 8.16 2.72-3.2 7.2-15.52 11.36-30.56 17.12-64.64 15.52-91.2-3.52-56.48-29.28-99.52-80.32-133.92-9.6-6.4-38.08-21.28-46.56-24.32l-4.64-1.6 4 2.72zM348.8 449.44c-0.8 1.76-4.16 4.64-7.2 6.56-4.32 2.72-5.6 4.48-5.6 8.16 0 5.28 0.8 5.44 6.4 2.24 2.24-1.28 4.48-2.24 5.28-2.4 0.64 0 1.12 6.88 1.12 15.2v15.2h11.2v-48h-4.8c-3.04 0-5.28 1.12-6.4 3.04zM381.6 450.4c-5.76 5.6-5.76 18.4 0.16 24.32 4 4 8.32 4.32 15.52 1.28 3.04-1.28 3.36 0.32 1.12 6.24-1.76 4.64-7.04 5.6-8.64 1.76-0.64-1.76-2.08-2.24-5.28-1.44-6.88 1.6-7.68 3.2-3.2 7.68 3.2 3.2 5.76 4.16 11.2 4.16 13.6 0 19.52-8.8 18.4-27.36-0.48-10.4-0.96-11.84-5.76-16-6.88-6.24-17.76-6.56-23.52-0.64z m14.72 5.28c3.52 2.24 4 9.12 0.8 12-3.84 3.52-7.68 2.08-8.96-3.04-1.76-6.88 3.04-12.32 8.16-8.96zM425.76 449.92c-0.64 2.08-1.76 7.68-2.4 12.8l-1.12 8.96 4.96 1.12c3.04 0.64 5.76 0.48 6.88-0.64 3.04-3.04 6.88-1.92 8.8 2.24 3.84 8.16-3.84 16.16-9.28 9.6-2.24-2.72-12.8-3.36-12.8-0.64 0 0.96 2.08 3.84 4.64 6.4 3.68 3.68 6.08 4.64 11.36 4.64 14.08 0 22.08-10.88 16.96-23.04-2.88-6.88-7.68-9.6-14.72-8.16-4.64 0.8-5.44 0.48-5.44-2.24 0-2.88 1.28-3.2 10.08-3.68 9.92-0.48 9.92-0.48 9.92-5.28v-4.8l-13.28-0.48c-12.48-0.48-13.28-0.32-14.56 3.2z" p-id="12406"></path><path d="M469.6 450.4c-4.48 4.32-5.12 10.56-1.6 14.24 1.28 1.28 2.4 2.72 2.4 3.36 0 0.64-1.12 2.08-2.4 3.36-2.24 2.24-3.2 7.68-2.4 13.44 0.16 1.28 1.76 4 3.68 5.92 2.72 3.04 4.96 3.68 12.48 3.68 8.32 0 9.6-0.48 13.44-5.12 3.52-4.16 4.16-6.24 3.36-10.56-0.48-3.04-1.92-6.72-3.36-8.32-2.24-2.4-2.24-2.88 0-4.8 3.68-3.04 2.88-10.72-1.6-15.2-3.04-3.2-5.44-4-12-4s-8.96 0.8-12 4z m16.48 7.84c0.8 4.16-4.16 8-7.2 5.6-2.24-1.92-2.72-6.56-0.96-8.48 2.08-2.08 7.68-0.16 8.16 2.88z m-0.48 17.6c2.08 3.04 2.24 4.64 0.8 7.2-2.24 4.32-7.36 4.32-9.6 0.16-2.4-4.48 0.16-9.12 5.92-11.04 0.32-0.16 1.6 1.6 2.88 3.68zM452 602.24c-5.28 1.28-15.84 4.32-23.2 7.04-20.96 7.36-40.8 11.36-63.68 12.96l-20.96 1.44-8.48 8.48-8.32 8.32 26.24-1.12c14.56-0.64 37.12-2.56 50.4-4.32 38.08-5.12 52.16-6.08 65.44-4.48 20 2.24 29.76 9.76 29.76 23.2 0 3.68 0.32 3.84 13.6 3.84h13.6v-6.24c0-20 27.52-25.92 82.4-17.92 25.76 3.84 66.24 7.04 79.36 6.24l8.96-0.48-8.48-7.68-8.64-7.68-19.68-1.44c-24.96-1.76-37.92-4.48-65.92-13.76-19.52-6.56-24.16-7.52-36.8-7.68-12.48-0.16-15.68 0.48-23.36 4-9.6 4.48-15.36 10.88-19.52 21.44l-2.4 6.4-1.76-4.48c-0.96-2.56-1.76-5.12-1.76-6.08 0-3.2-12.32-14.88-18.88-17.76-8.96-4-25.92-4.96-37.92-2.24zM215.2 216.96c-9.6 4.8-17.92 21.28-19.52 38.4-0.8 8.48-0.48 10.72 2.72 15.68 1.92 3.2 6.88 8 10.88 10.72 4.16 2.72 12 9.6 17.28 15.2 9.6 9.92 15.04 12.8 15.04 7.84 0-1.44 1.76-3.2 3.84-4 4-1.44 12.16-11.84 12.16-15.36 0-1.12 2.72-3.04 6.08-4.32 8-3.2 11.68-7.52 12.64-15.36 0.8-6.24 0.48-7.04-7.68-15.04-20.16-19.52-41.92-36.32-47.04-36.16-0.8 0-3.68 1.12-6.4 2.4z m11.68 9.76c16.64 9.44 38.72 29.6 38.72 35.2 0 4.48-2.72 10.08-4.8 10.08-2.4 0-11.04 9.6-10.4 11.68 1.28 3.36-5.28 12.32-8.96 12.32s-12.16-7.52-21.6-18.72l-5.44-6.72 2.56-6.4c2.56-6.4 5.28-8.48 5.6-4.64 0.16 1.12 0.32 5.6 0.48 10.08l0.16 8 5.6-0.32c4.48-0.16 6.08 0.48 7.2 3.2 4.64 10.56 15.04-3.36 15.36-20.64 0.16-5.44-0.32-10.72-0.8-11.68-1.6-2.56-5.44-2.08-10.24 1.28-7.68 5.28-11.04 5.6-13.92 1.12-3.84-5.76-6.88-6.24-11.36-1.76-2.56 2.56-3.84 5.6-3.84 9.44 0 7.68-2.4 8.48-5.44 1.92-3.04-6.24-3.2-12.16-0.8-20.64 1.6-6.08 10.08-17.12 12.96-17.12 0.8 0 4.8 1.92 8.96 4.32z m16.16 30.24c0.48 2.56 0.16 2.72-2.08 0.8-3.04-2.56-3.36-5.44-0.48-4.64 0.96 0.48 2.24 2.08 2.56 3.84z m-15.04 13.44c0.48 0.8 0.16 1.6-0.64 1.6-0.96 0-1.76-0.8-1.76-1.6 0-0.96 0.32-1.6 0.64-1.6 0.48 0 1.28 0.64 1.76 1.6zM801.44 234.56c-2.08 3.36-6.56 8.16-9.76 10.72-5.6 4.48-6.4 4.64-10.24 2.72-2.24-1.28-5.76-5.12-7.84-8.48-3.52-5.92-3.84-6.08-5.44-3.04-2.72 5.28-2.08 9.28 2.4 14.72 2.4 2.72 3.84 5.28 3.36 5.76-2.24 2.24-13.44 2.4-17.76 0.16-2.56-1.44-5.44-2.08-6.56-1.6-3.52 1.28 0.48 9.92 5.12 11.04 5.44 1.44 16.64-0.32 23.52-3.68l5.76-2.72 13.12 6.88c10.88 5.6 13.44 6.4 15.2 4.48 1.76-1.76 1.44-3.52-2.72-10.88-2.56-4.64-4.8-8-4.8-7.04-0.16 4.32-2.72 5.92-6.56 4-2.08-1.12-4.16-2.24-4.48-2.56-0.32-0.32 3.52-4.48 8.64-9.12 6.88-6.72 8.96-9.6 8.48-12.48-0.8-5.92-5.12-5.44-9.44 1.12zM772.32 276c0.48 2.24-0.48 6.08-2.56 9.28-4.16 6.88-4.32 10.08-0.32 12.32 7.68 4 12.96-0.16 12.96-10.4 0-10.08-2.4-15.2-6.88-15.2-3.2 0-3.68 0.64-3.2 4zM158.4 333.12c-1.76 3.84-3.2 8-3.2 9.28-0.16 5.44-2.4 6.56-7.68 4-4.48-2.24-5.44-2.24-9.44-0.16-13.12 7.2-12.8 10.4 1.28 16.8l9.6 4.32 0.48 9.44c0.48 8 0 9.92-2.88 12.16-4.32 3.52-1.6 6.88 7.68 9.28 8 1.92 16.64 0.16 20.96-4.64 1.6-1.76 3.84-3.2 5.12-3.2 1.28 0 3.2-0.96 4.48-2.08 1.6-1.76 4.16-1.92 11.84-0.64 5.44 0.8 10.24 1.12 10.88 0.64 1.12-1.28-13.6-15.04-17.44-16.32-3.36-1.12-5.12-8.48-4.8-20.32 0-5.12-0.64-9.6-1.44-10.24-0.96-0.48-3.68 0.96-6.08 3.2l-4.48 4.32-0.96-5.44c-1.28-8.48-5.6-17.12-8.32-17.12-1.44 0-3.84 2.88-5.6 6.72z m9.76 16c2.4 8.64 1.6 10.4-3.2 7.68-3.36-1.76-4.64-9.28-2.4-15.2 1.44-3.68 3.36-1.28 5.6 7.52z m5.92 33.76c0.48 2.08-0.48 2.72-4.32 2.72-5.12 0-9.76-4.8-9.76-10.08 0-2.72 0.48-2.72 6.72 0.8 3.84 2.08 7.04 4.96 7.36 6.56zM875.2 332.32c-4.16 1.6-9.6 7.36-9.6 10.4 0 4.48 5.12 3.52 12-2.4 7.52-6.56 6.24-11.2-2.4-8zM831.52 342.08c-1.6 1.6-2.72 4.48-2.72 6.4 0 3.2 0.8 3.52 7.68 3.52 13.28 0 35.52 12.48 35.52 20 0 4-3.84 8.8-6.88 8.8-4-0.16-11.04-8-10.24-11.36 1.12-4.16-4-9.44-9.12-9.44-5.6 0-6.72 2.88-1.92 5.12 6.24 2.72 5.28 6.08-1.92 6.08-3.36 0-6.88 0.8-7.84 1.76-1.44 1.44-2.88 0-5.44-5.6-2.08-4-4.48-7.2-5.44-6.88-2.24 0.8-1.12 9.12 1.92 13.6 1.28 2.08 1.92 4.16 1.44 4.64-1.76 1.92-5.92-1.28-8.48-6.72-1.44-3.04-3.2-5.6-4-5.6-1.44 0-1.76 11.36-0.32 15.2 1.6 4.16 9.76 7.52 13.44 5.6 4.32-2.4 6.4-0.8 6.4 4.8 0 4.8 3.36 7.2 6.24 4.32 2.72-2.72 2.24-13.44-0.64-14.56-4.96-1.92-2.08-4.16 5.28-4.16 6.72 0.16 7.84 0.64 10.72 5.28 6.24 9.92 16.64 6.56 20.48-6.56l2.24-7.52 5.6 5.92c6.24 6.88 8.64 7.52 10.08 2.72 0.8-2.24-0.8-6.08-5.44-12.96-3.68-5.44-6.56-10.4-6.56-11.2 0-0.64-0.64-1.28-1.6-1.28-0.8 0-1.6 2.08-1.6 4.8 0 2.56-0.32 4.8-0.64 4.8-0.48 0-6.56-4-13.6-8.8-19.68-13.6-27.68-16.16-32.64-10.72zM148.48 518.72c-0.48 1.12-6.08 2.4-14.08 3.04-10.08 0.96-13.92 1.92-15.52 4-2.88 3.84-2.56 15.2 0.48 19.52 2.24 3.2 3.84 3.52 16.48 3.52 8.96 0 14.72 0.64 16 1.92 1.76 1.76 2.08 1.6 1.12-0.8-0.48-1.6-0.96-4-0.96-5.44 0-1.92-0.32-1.92-2.56 0.16-1.76 1.92-5.6 2.56-14.24 2.56-10.08 0-12.16-0.48-13.6-3.04-2.24-4.32-2.08-13.76 0.48-15.68 3.2-2.72 26.4-4 27.2-1.6 0.48 0.96 0.96-0.8 0.96-4.16 0.16-5.92-0.64-7.68-1.76-4zM892.96 525.92c-0.16 1.44-3.2 2.08-9.44 2.08-5.12 0-10.08 0.8-11.2 1.92-3.2 3.2-1.92 14.08 1.44 14.08 0.8 0 0.64-1.44-0.48-3.2-2.88-4.48 0.16-8.8 6.56-9.12 6.24-0.32 12.32 4.32 10.88 8.16-1.44 3.84-6.24 2.56-8.64-2.24-1.92-4-2.08-4-2.08-0.48 0 3.68 5.12 10.08 7.84 10.08 1.6 0 6.56-4.48 6.56-5.76 0-0.48-0.8-2.4-1.76-4.16-1.28-2.4-1.28-3.52 0.16-4.48 0.96-0.64 1.6-2.88 1.12-4.96-0.32-2.08-0.8-2.88-0.96-1.92zM890.56 553.44c-0.64 1.12-4.64 1.28-10.24 0.8-8.64-0.96-9.28-0.8-11.36 3.04-1.28 2.4-1.6 5.28-0.96 7.04 1.12 2.56 1.44 2.4 2.24-1.12 1.12-3.68 1.76-4 10.88-3.84 8.64 0.16 9.92-0.32 10.72-3.2 0.96-3.68 0.16-5.28-1.28-2.72zM138.4 559.36c-1.12 1.6-4.48 2.56-9.92 2.72-8.32 0.32-8.48 0.48-8.48 5.12 0 3.2 0.48 4.16 1.44 2.72 0.64-1.28 4.48-2.88 8.32-3.68 6.24-1.44 7.36-1.28 9.76 1.76 1.44 1.76 2.4 4.32 1.92 5.6-0.96 2.24-9.92 5.6-15.36 5.6-2.08 0-2.88 1.28-2.88 4.16 0 3.68 0.16 3.84 2.56 1.6 1.28-1.44 4.16-2.56 6.24-2.56 2.08 0 5.6-0.64 7.84-1.6 3.36-1.28 4.16-2.56 4.16-7.04 0-3.04-0.8-6.08-1.6-6.56-0.96-0.64-1.28-2.24-0.96-3.68 1.28-4-1.12-7.2-3.04-4.16zM868.16 569.12c-0.48 0.48-0.96 2.08-0.96 3.52 0 2.08 1.44 2.4 7.68 2.08 5.6-0.48 8.48 0.16 10.4 1.92 3.52 3.52 4.32 3.2 4.32-1.92 0-4-0.48-4.32-5.92-4.32-3.36 0-8-0.48-10.24-1.12-2.24-0.64-4.64-0.8-5.28-0.16zM852.8 583.04c0 1.44 1.12 2.56 2.56 2.56 1.44 0 2.24-0.8 1.92-1.92-0.96-2.88-4.48-3.36-4.48-0.64zM864 586.88c0 2.4 0.8 3.04 3.04 2.4 4.16-1.12 16.16 2.4 16.16 4.8 0 2.88 3.2-2.4 3.2-5.28 0-1.6-1.6-2.4-4.32-2.4-2.56-0.16-7.52-0.64-11.2-1.44-6.24-1.12-6.88-0.96-6.88 1.92zM156.16 588.32c-1.76 1.76-0.96 3.68 1.44 3.68 1.28 0 2.4-0.64 2.4-1.44 0-2.08-2.56-3.52-3.84-2.24zM144 590.08c0 2.56-14.88 5.12-17.44 3.04-1.92-1.6-2.08-1.44-1.28 0.96 0.64 1.6 1.12 4.48 1.12 6.4 0 3.04 0.16 3.04 2.08 0.8 0.96-1.44 6.08-3.36 11.2-4.48 4.96-0.96 9.12-2.08 9.12-2.4 0-0.32-0.48-1.6-0.96-3.04-0.96-2.72-3.84-3.52-3.84-1.28zM860.16 602.56c-1.92 1.92-2.56 4.16-1.92 7.36 0.96 5.12 0.32 5.44-7.52 2.08-7.52-3.04-7.52-3.04-7.52 1.44 0 3.04 0.64 3.68 3.04 3.04 4.16-1.12 26.08 5.6 28.64 8.8 0.96 1.44 1.92 1.92 1.92 0.96 0-0.8 0.48-2.88 0.96-4.64 0.64-2.56 0-3.2-3.68-3.36-2.4-0.16-6.56-1.12-8.96-2.08-3.68-1.44-4.48-2.56-4-6.24 0.48-3.84 1.12-4.32 6.08-4.16 3.04 0 7.68 0.32 10.4 0.8 3.2 0.48 4.8 0 5.12-1.76 0.32-1.6-0.8-2.56-3.04-2.72-2.08 0-6.56-0.64-10.24-1.28-5.12-0.96-7.04-0.48-9.28 1.76zM148.8 604.48c0 0.64-4 4.32-8.8 8-9.28 7.2-9.92 9.92-2.72 9.92 3.04 0 3.68-0.48 2.08-1.44-1.6-0.96-0.8-2.4 3.36-5.6 3.04-2.24 6.72-4.16 8-4.16 1.76 0 2.24-1.12 1.6-4-0.64-3.52-3.52-5.76-3.52-2.72zM148 622.4c-5.12 0.96-5.6 1.12-1.92 1.44 2.56 0 5.92 0.96 7.68 1.76 2.56 1.44 3.04 1.12 3.04-1.6 0-1.76-0.48-3.04-1.12-3.04-0.8 0.16-4.16 0.8-7.68 1.44zM840.16 626.24c-3.84 6.08-4.64 19.68-1.28 23.68 8 9.92 22.72 10.08 29.12 0.32 3.04-4.8 5.6-16.48 3.84-17.6-0.8-0.48-1.44 0.96-1.44 3.2 0 12.16-12.48 20.48-22.88 15.2-5.12-2.72-9.12-8-9.12-12.64 0-5.92 5.92-14.88 9.12-13.76 2.08 0.8 2.24 0.64 0.48-1.44-2.88-3.52-4.16-3.04-7.84 3.04zM144.96 636.96c-5.28 4.16-5.76 12.32-0.8 16.8 3.36 3.04 3.36 3.04 1.44-1.28-2.4-5.12-0.96-12.48 2.56-12.48 1.28 0 3.36 2.4 4.64 5.44 3.04 7.2 5.12 8.32 8.96 4.8 4.16-3.68 3.84-8-0.96-12.64-4.8-4.8-10.24-5.12-15.84-0.64z m14.72 1.76c2.56 2.56 2.4 6.88-0.32 9.12-1.92 1.6-2.88 1.12-4.96-3.04-3.52-6.88 0.16-11.2 5.28-6.08zM166.4 656.48c0 1.92-2.56 4-7.36 6.08-6.08 2.72-7.68 2.88-9.76 1.12-2.4-1.76-2.56-1.76-1.44 1.12 0.8 1.76 1.76 4.48 2.08 5.92 0.48 1.6 1.6 2.88 2.4 2.88s0.96-0.8 0.48-1.6c-1.28-2.08 11.68-8 14.72-6.88 1.12 0.48 2.08 2.24 2.08 3.84 0 3.2 1.28 3.68 4.48 1.76 1.44-1.12 1.28-2.08-1.28-4.32-1.76-1.6-2.72-3.52-2.24-4.16 0.48-0.8-0.32-3.04-1.6-4.96-2.24-3.04-2.56-3.2-2.56-0.8zM818.24 674.24c-0.48 1.28 0 4 1.12 6.08 2.4 4.48 8.96 10.88 10.08 9.76 1.28-1.44 13.6 6.4 14.24 8.96 0.32 1.76 1.28 0.96 3.2-2.56 2.24-4.16 2.24-4.96 0.48-4.32-1.28 0.48-5.28-0.64-8.96-2.56-5.92-3.04-6.56-3.84-5.76-7.68 0.96-4.16 0.96-4.16-1.44-1.28-2.08 2.72-2.88 2.88-6.56 1.12-3.36-1.44-4-2.56-3.2-5.76 1.12-4.32-1.76-5.76-3.2-1.76zM170.4 678.4c-0.64 0.96-0.8 4.8-0.48 8.48 0.32 5.92 0 6.72-3.04 7.2-2.72 0.48-3.84-0.48-4.64-3.52-0.48-2.24-0.64-5.12-0.16-6.4 0.64-1.6 0.16-2.08-1.44-1.44-3.2 1.12-2.72 5.76 1.12 10.72 6.4 8.16 13.76 3.84 11.84-7.04-1.12-6.4-0.96-6.56 2.56-6.08 3.04 0.32 3.84 1.44 3.84 4.8-0.16 4.48 1.44 5.76 3.2 2.88 0.48-0.8-0.16-3.68-1.6-6.4-2.56-4.8-8.96-6.72-11.2-3.2zM197.6 692.8c-0.64 0.96-0.48 2.56 0.48 3.52 0.96 0.96 1.92 0.96 2.72-0.32 0.64-0.96 0.48-2.56-0.48-3.52-0.96-0.96-1.92-0.96-2.72 0.32zM187.2 697.44c0 2.08-15.2 10.08-16.64 8.64-1.76-1.76-0.96 1.76 1.44 5.92 1.6 2.72 2.24 3.2 2.4 1.44 0-1.6 3.68-4.64 8.8-7.2 4.8-2.56 8.8-5.12 8.8-5.6 0-0.64-1.12-1.92-2.4-3.04-1.6-1.28-2.4-1.44-2.4-0.16zM818.24 701.28c-11.52 9.92 2.4 28 14.24 18.72 6.08-4.8 6.08-14.4 0.16-19.04-5.44-4.32-9.12-4.16-14.4 0.32z m12.16 3.52c8.64 4.48 4.96 15.2-4.32 12.8-8.64-2.08-12.64-8.8-8.16-13.28 2.56-2.56 6.88-2.4 12.48 0.48zM200.8 708.8c-0.48 0.8-2.4 1.6-4.16 1.6-1.6 0-3.04 0.64-3.04 1.6 0 0.8-2.88 3.52-6.4 5.92-6.72 4.32-8.32 9.76-3.36 11.36 1.6 0.48 1.92 0 1.28-1.76-0.64-1.6 0.96-3.84 4.48-6.56 6.56-5.12 7.36-5.12 11.68-0.48l3.52 3.68-5.12 9.44c-2.72 5.28-6.08 10.56-7.52 11.68-2.24 1.92-2.08 2.08 1.44 1.28 25.76-6.24 28.16-7.2 24-9.76-0.96-0.48-2.72 0-4 1.44-2.56 2.4-11.68 4.96-13.12 3.68-0.96-0.96 4-9.12 7.2-11.84 2.08-1.6 1.6-2.72-2.72-7.68-5.76-6.72-6.08-8.16-1.76-10.4 1.76-0.96 2.88-2.4 2.4-3.36-1.28-1.92-3.52-1.92-4.8 0.16zM792.96 737.44c-0.64 0.96 0.16 3.68 1.92 6.24 1.76 2.4 3.68 6.08 4.32 8.16 0.96 3.2 0.64 3.68-1.6 2.88-1.44-0.64-3.68-1.12-4.96-1.12-1.28 0-3.68-1.44-5.28-3.04-2.88-2.88-3.2-3.04-5.6-0.32s-2.08 3.04 4.16 4.96c3.84 1.28 9.92 3.52 13.6 4.96l6.72 2.88-1.44-3.52c-4.96-12.8-10.88-23.68-11.84-22.08zM177.92 745.92c0.48 1.12 3.2 2.24 6.24 2.4 3.04 0.16 4-0.16 2.24-0.64-1.76-0.48-3.84-1.44-4.64-2.24-2.24-2.08-4.48-1.76-3.84 0.48zM769.6 764.64c-6.56 5.76-7.04 6.56-5.6 10.72 1.28 3.36 2.88 4.8 6.08 5.12 3.04 0.32 4.32 1.44 4.32 3.68 0 1.6 0.8 3.04 1.6 3.04 0.96 0 2.4 1.76 3.2 4 3.2 8.32 12.8 6.4 16.96-3.2 2.4-5.92 1.6-9.44-3.36-13.6-2.24-1.76-3.36-1.28-8.64 3.84-6.72 6.56-9.12 5.76-6.24-1.76 1.28-3.36 1.28-7.04 0.32-11.52l-1.44-6.56-7.2 6.24z m5.44 3.84c4 3.04 2.72 8.32-2.08 8.32-4.48 0-7.52-4-6.08-7.84 1.28-3.04 4.32-3.36 8.16-0.48z m18.24 11.04c2.88 2.88 2.24 8.48-1.12 11.52-3.68 3.36-7.84 2.88-10.4-0.96-1.28-2.24-0.8-3.68 3.04-7.68 5.12-5.44 5.76-5.6 8.48-2.88zM807.2 767.84c0.64 2.08 0.16 4.48-0.96 5.92-2.08 2.56-0.96 4.8 1.6 3.04 2.24-1.28 2.24-9.92 0-11.36-1.28-0.64-1.44 0.16-0.64 2.4zM229.76 770.4c-5.6 5.12-5.44 10.72 0.8 15.84 6.08 5.12 9.6 5.28 15.2 0.48 8.48-7.36 3.84-20.32-7.36-20.32-2.4 0-6.24 1.76-8.64 4z m13.6-0.8c4 2.24 3.84 8.16-0.32 13.44-3.68 4.64-9.6 5.44-12.64 1.76-2.56-3.04 0.48-11.04 5.44-14.4 3.84-2.88 3.52-2.88 7.52-0.8zM267.68 778.72c-1.92 0.32-4.32 1.76-5.28 3.04-1.12 1.28-3.04 2.24-4.16 2.24-1.28 0-2.08 0.64-1.76 1.44 0.48 2.24-6.88 11.36-10.24 12.64-2.88 1.12-2.88 1.44 1.44 4.64l4.64 3.36-0.64-3.36c-0.8-4.16 9.6-15.36 11.36-12.48 0.64 0.96 1.76 1.76 2.72 1.76 0.8 0 0.64-1.44-0.48-3.36-1.76-2.88-1.6-3.68 1.76-6.4 2.88-2.4 4.32-2.72 6.08-1.28 2.4 2.08 4.48 0.96 2.88-1.6-0.96-1.76-2.08-1.92-8.32-0.64zM746.4 786.4c-4.8 4.8-5.12 10.24-0.64 15.84 4.32 5.44 12.32 5.76 17.12 0.48 10.72-11.36-5.6-27.36-16.48-16.32z m12.96 3.04c5.28 4.8 4.96 12.64-0.64 13.44-8 1.12-16.16-9.28-11.52-14.88 2.88-3.52 7.52-2.88 12.16 1.44zM720.32 792c-1.6 2.56-1.6 3.2 0.16 3.2 2.56 0 19.2 20.32 19.2 23.52 0 2.88 1.76 2.56 5.12-1.12 2.4-2.72 2.56-3.2 0.32-3.2-1.28 0-6.56-5.76-11.84-12.8-5.12-6.88-9.6-12.64-10.08-12.8-0.48 0-1.76 1.44-2.88 3.2zM289.76 804.16c-1.92 2.4-3.36 4.96-3.36 5.6 0 0.8 2.56 4.32 5.76 7.84 5.92 6.56 6.56 10.4 1.92 13.44-4.64 2.88-11.36-0.64-13.6-7.04-1.44-4.64-1.92-5.12-2.88-2.72-0.8 2.08 0.16 4.32 3.36 7.68 7.36 7.68 21.44 5.6 21.44-3.36 0-1.6-2.56-5.76-5.6-9.12-6.56-7.04-6.56-7.52-2.4-11.68 2.56-2.56 4-2.88 6.24-1.6 5.28 2.72 8.32 6.72 7.36 9.28-0.64 1.92-0.48 2.08 1.44 0.32 2.24-1.76 2.08-2.4-0.32-5.6-5.76-8-14.4-9.28-19.36-3.04zM708.96 815.36c-4.48 5.6-4.16 10.4 0.64 15.68 7.52 8.16 20 3.04 20-8.32 0-11.04-13.92-15.84-20.64-7.36z m13.76 2.56c4.96 5.6 5.6 7.36 3.68 10.88-2.56 4.8-8.64 4-13.44-1.76-4.64-5.44-5.12-7.84-2.24-10.72 3.04-3.04 8.48-2.24 12 1.6zM309.12 826.72c-2.56 0.96-6.72 8.96-6.72 12.96 0 3.68 4.16 7.52 9.6 8.96l4 1.12-4.32-3.36c-2.88-2.24-4.48-4.96-4.48-7.84 0-5.28 4-11.36 7.52-11.36 4 0 8.48 4.8 7.2 7.68-0.8 2.4-0.64 2.4 1.76 0.48 3.84-3.04 3.36-4.48-2.08-7.36-4.64-2.4-8.64-2.88-12.48-1.28zM339.68 826.72c-2.88 1.12-2.56 3.68 0.32 3.68 1.28 0 2.4-1.12 2.4-2.4s-0.16-2.4-0.32-2.24c-0.32 0-1.44 0.48-2.4 0.96zM688 828.8c-1.76 1.76-4.16 3.2-5.44 3.2-1.12 0-3.04 1.12-4.16 2.4-1.6 1.92-1.6 2.4 0.16 2.4 3.04 0 10.08 13.6 8.8 16.8-0.8 2.24-0.32 2.24 3.84-0.32 3.84-2.24 4.32-3.04 2.4-4.16-1.28-0.64-3.84-4.16-5.6-7.52-2.88-5.6-2.88-6.4-0.64-8.64 4.32-4.48 8-3.04 12 4.64 4 7.36 5.28 8.32 9.44 5.6 2.08-1.28 2.08-1.6-0.16-1.6-1.44 0-3.52-2.08-4.64-4.64-2.4-5.92-7.52-11.36-10.4-11.36-1.28 0-3.84 1.44-5.6 3.2zM645.76 836c-2.56 1.92-2.72 2.4-0.64 2.4 2.72 0 15.2 24.64 14.4 28.32-0.64 2.72 1.12 2.56 6.08-0.32 2.72-1.6 3.2-2.24 1.44-2.4-1.6 0-4-2.88-5.92-6.88-3.68-7.68-2.4-12.32 3.52-12.32 2.72 0 4.48 1.76 7.36 8 2.56 5.44 4.48 7.84 6.08 7.2 1.12-0.48 2.56-0.8 3.04-0.8 0.64 0-0.16-1.28-1.44-2.88-1.44-1.44-3.84-5.6-5.6-9.12-3.36-7.52-8.32-8.96-13.12-4.16-1.92 1.92-3.68 3.36-4.16 3.36-0.48 0-1.92-2.88-3.36-6.4-2.88-7.04-3.36-7.36-7.68-4zM330.88 836.64c1.76 1.12 1.6 2.72-1.28 8.32-2.08 3.84-4.48 7.52-5.44 8.16-1.12 0.8-0.64 1.92 1.44 3.52 4 3.04 5.76 3.2 4.64 0.32-0.48-1.28 1.12-6.08 3.36-10.56 4.32-8.64 3.84-11.2-2.4-11.2-1.92 0-1.92 0.32-0.32 1.44zM342.56 848.96c-4.64 5.92-4.32 12.48 0.8 16.48 2.4 1.92 6.08 3.2 8.48 3.2 3.36-0.16 3.52-0.32 0.96-0.96-1.76-0.48-4.48-1.92-5.92-3.36-3.68-3.2-3.84-9.92-0.32-9.92 2.08 0 2.24-0.48 0.8-2.08-1.28-1.6-1.12-2.72 0.16-4 2.56-2.56 6.88-2.4 9.28 0.48 2.88 3.52 0.64 7.68-3.52 6.72-1.92-0.64-2.72-0.32-1.92 0.48s3.36 1.76 5.44 1.92c3.2 0.32 4.16-0.32 4.48-3.2 1.44-9.44-12.48-13.6-18.72-5.76zM634.72 855.68c-4.8 5.12-5.6 10.72-1.76 16 3.36 4.8 13.28 4.96 17.6 0.16l3.04-3.52-5.28 2.72c-4.8 2.56-5.76 2.56-9.12 0.32-2.08-1.28-4.16-4.64-4.8-7.36-1.44-6.72 1.6-10.24 7.68-8.96 3.2 0.64 4.32 0.32 4-1.12-1.28-3.68-6.88-2.88-11.36 1.76zM367.52 856.48c0.96 4.64-3.36 15.52-6.24 15.52-2.72 0.16 1.28 2.4 6.72 3.84 2.72 0.8 3.36 0.64 1.76-0.32-1.76-1.28-1.76-2.56-0.16-7.68 1.12-3.52 2.72-7.2 3.52-8.16 2.24-2.88 0.32-6.88-3.2-6.88-2.4 0-2.88 0.96-2.4 3.68zM583.2 857.12c-12.48 2.56-15.2 4.32-12.32 7.2 1.12 1.12 1.92 1.28 1.92 0.32 0-0.96 1.76-2.56 4-3.52 4.8-2.24 4.48-2.88 8.64 14.88 2.24 9.44 2.56 13.28 1.28 14.88-1.28 1.76-0.8 1.92 3.04 0.96 6.72-1.6 7.52-2.4 4.8-4.32-2.56-2.08-7.36-18.88-7.36-25.76 0-3.52 0.64-4.16 4.64-4.16 2.56 0 5.12 0.96 5.44 1.92 0.48 1.12 0.96 0.48 0.96-1.6 0.16-4 0.16-4-15.04-0.8zM379.68 858.56c5.12 2.72 5.12 2.72 1.76 12.48-2.24 6.56-2.24 8-0.48 9.12 3.36 2.08 4.48 1.76 3.68-1.44-0.48-1.44 0.32-5.76 1.6-9.28 2.08-5.92 2.08-7.04 0-10.08-1.44-2.08-4.16-3.36-6.72-3.36l-4.32 0.16 4.48 2.4zM609.92 864.48c-1.92 2.08-3.52 5.76-3.52 8.16 0 4.32 6.24 12.16 9.6 12.16s12.8-4.64 12.8-6.4c0-1.12-1.44-0.8-3.52 0.64-4.8 3.36-8.16 3.2-11.84-0.8-2.56-2.72-2.56-3.52-0.64-4.64 1.28-0.96 3.52-1.6 4.8-1.6 1.28 0 4-0.96 5.92-2.08 3.36-1.92 3.52-2.24 1.12-5.6-3.2-4.64-10.24-4.64-14.72 0.16z m10.56 2.4c0.48 2.56-0.32 3.52-2.72 3.68-1.92 0.16-4.16 0.32-5.28 0.48-3.04 0.32-3.2-3.2-0.32-6.08 3.52-3.52 7.68-2.56 8.32 1.92zM538.4 864.16c-1.76 0.64-2.24 1.28-1.12 1.28 1.12 0.16 1.92 2.4 1.92 5.92 0 4.16-0.64 5.6-2.08 4.96-3.2-1.28-11.84 3.04-13.92 6.88-4.16 7.68 3.52 19.2 11.2 16.8 1.76-0.48 3.2-1.6 3.2-2.4s-1.12-1.12-2.4-0.48c-3.84 1.44-8.8-4.16-8.8-9.92s2.4-8.8 7.36-8.8c4.96 0 7.36 3.68 6.88 10.72-0.48 7.36 0.8 10.08 5.12 10.08 3.04 0 3.04-0.16 0.8-3.52-1.44-2.08-2.56-7.2-2.72-11.68 0-4.32-0.64-10.88-1.12-14.56-0.96-5.76-1.44-6.4-4.32-5.28zM397.28 866.4c-8.96 6.24-3.2 23.36 7.2 21.28 2.08-0.48 1.44-1.28-2.08-2.88-5.92-2.88-7.52-11.36-3.04-16.16 3.52-3.84 6.24-3.84 10.08 0 2.56 2.56 3.36 2.72 4 0.8 1.92-4.96-10.08-7.2-16.16-3.04zM423.84 870.56c-4.32 1.6-7.84 7.36-7.84 12.64 0 5.28 5.76 9.6 12.48 9.44l5.92-0.16-5.44-1.28c-5.76-1.28-8.16-3.84-8.16-8.48 0-1.76 1.28-2.72 3.68-2.88 2.72-0.16 2.88-0.32 0.64-0.96-4.8-1.28-2.56-6.08 2.88-6.08 3.68 0 4.96 0.8 5.28 3.52 0.32 2.24-0.48 3.68-2.4 4.16-1.6 0.48-0.8 0.8 1.92 0.64 5.92-0.32 6.88-4 2.4-8.8-3.68-3.84-5.12-4-11.36-1.76zM467.04 879.52c-2.08 2.56-1.92 2.72 0.48 0.64 1.6-1.28 4.48-1.76 6.72-1.12 3.36 0.8 3.84 1.92 3.84 8.32 0 4.8-0.64 7.52-2.24 8.16-1.76 0.64-1.28 1.44 1.92 3.04 5.6 2.88 8 2.88 5.44-0.16-1.28-1.44-1.6-4.48-0.96-7.84 0.64-2.88 0.32-7.2-0.64-9.6-1.28-3.36-2.56-4.16-7.04-4.16-3.2 0-6.24 1.12-7.52 2.72zM503.36 877.92c-0.64 0.64-3.68 0.96-7.04 0.8-4.8-0.32-5.44 0-3.84 1.6 2.4 2.4 2.56 16 0 18.56-1.44 1.44-0.64 1.92 3.52 1.76 3.04 0 4.64-0.48 3.68-0.96-1.28-0.48-2.08-3.84-2.08-8.32 0-6.4 0.64-8 4-9.76 6.08-3.2 8.8 0 8.8 10.56 0 8 0.32 8.64 3.68 8.48 1.92 0 2.56-0.48 1.6-0.96-1.44-0.48-2.08-4.16-2.08-10.24 0-8.8-0.32-9.6-4.16-11.04-4.8-1.92-4.64-1.92-6.08-0.48z" p-id="12407"></path><path d="M466.56 888.48c-4 2.88-2.88 9.76 1.92 10.4 4.16 0.64 4.48-0.96 0.8-3.84-2.72-2.08-2.72-2.4 0.96-5.44 4.16-3.68 1.12-4.64-3.68-1.12z" p-id="12408"></path></svg>