<?xml version="1.0" standalone="no"?><!DOCTYPE svg PUBLIC "-//W3C//DTD SVG 1.1//EN" "http://www.w3.org/Graphics/SVG/1.1/DTD/svg11.dtd"><svg t="1769455349316" class="icon" viewBox="0 0 1024 1024" version="1.1" xmlns="http://www.w3.org/2000/svg" p-id="9730" xmlns:xlink="http://www.w3.org/1999/xlink" width="200" height="200"><path d="M394.88 76.8a105.6 105.6 0 0 0-105.6 105.6v464.64a105.6 105.6 0 0 0 105.6 105.6h459.52A105.6 105.6 0 0 0 960 647.04V182.4a105.6 105.6 0 0 0-105.6-105.6z m448 493.44a64 64 0 0 1-60.8 64H467.84a64 64 0 0 1-64-60.8V256a64 64 0 0 1 64-64h314.24a64 64 0 0 1 60.8 64v314.24z" p-id="9731"></path><path d="M631.04 273.92H169.6A105.6 105.6 0 0 0 64 379.52v462.08a105.6 105.6 0 0 0 105.6 105.6h461.44a105.6 105.6 0 0 0 105.6-105.6V379.52a105.6 105.6 0 0 0-105.6-105.6zM618.24 768a64 64 0 0 1-60.8 64H243.2a64 64 0 0 1-60.8-64V454.4a64 64 0 0 1 60.8-60.8h314.24a64 64 0 0 1 60.8 60.8z" p-id="9732"></path></svg>